<?xml version="1.0" standalone="no"?>
<!DOCTYPE svg PUBLIC "-//W3C//DTD SVG 20010904//EN"
 "http://www.w3.org/TR/2001/REC-SVG-20010904/DTD/svg10.dtd">
<svg version="1.0" xmlns="http://www.w3.org/2000/svg"
 width="1200.000000pt" height="630.000000pt" viewBox="0 0 1200.000000 630.000000"
 preserveAspectRatio="xMidYMid meet">
<metadata>
Created by potrace 1.16, written by Peter Selinger 2001-2019
</metadata>
<g transform="translate(0.000000,630.000000) scale(0.100000,-0.100000)"
fill="#000000" stroke="none">
<path d="M3480 3150 l0 -2520 2520 0 2520 0 0 2520 0 2520 -2520 0 -2520 0 0
-2520z m1014 1578 c74 -28 164 -112 196 -183 13 -28 28 -83 33 -123 10 -63 9
-80 -8 -130 -35 -106 -76 -161 -155 -212 -151 -97 -334 -75 -463 54 -54 54
-80 105 -98 195 -34 161 79 346 246 408 55 20 183 15 249 -9z m1437 -78 c4 0
32 -42 64 -92 32 -51 73 -117 91 -145 19 -29 34 -57 34 -63 0 -5 5 -10 10 -10
6 0 10 -5 10 -11 0 -5 18 -37 40 -69 22 -32 40 -62 40 -65 0 -4 11 -21 24 -38
13 -18 33 -48 44 -67 10 -19 43 -73 72 -120 29 -47 60 -97 69 -112 9 -15 50
-80 91 -145 41 -64 77 -122 80 -127 3 -6 22 -37 43 -69 20 -31 37 -62 37 -67
0 -6 5 -10 10 -10 6 0 10 -5 10 -10 0 -9 47 -87 60 -100 3 -3 11 -16 19 -30 8
-14 37 -61 64 -105 27 -44 57 -92 66 -107 9 -15 48 -77 86 -138 39 -61 77
-123 86 -138 9 -15 40 -65 69 -112 29 -47 58 -95 64 -107 35 -73 36 -48 36
1017 0 825 3 1040 13 1041 68 4 634 -4 640 -10 4 -4 6 -711 5 -1572 l-3 -1564
-351 -3 -351 -2 -27 40 c-14 22 -26 44 -26 49 0 5 -4 11 -8 13 -4 2 -21 25
-37 52 -44 73 -64 106 -125 203 -30 48 -62 99 -70 113 -8 14 -17 27 -20 30 -3
3 -11 15 -17 28 -32 55 -39 67 -55 86 -10 11 -18 23 -18 27 0 4 -27 49 -60
100 -33 52 -63 101 -67 109 -3 8 -24 41 -45 72 -21 31 -38 62 -38 67 0 6 -4
11 -9 11 -5 0 -11 8 -14 18 -5 16 -32 62 -50 87 -12 16 -47 72 -111 175 -32
52 -78 125 -102 162 -24 37 -44 70 -44 72 0 5 -77 128 -176 283 -19 29 -34 57
-34 63 0 5 -4 10 -10 10 -5 0 -10 4 -10 10 0 12 -128 210 -136 210 -3 0 -5
-24 -4 -52 2 -29 2 -500 1 -1045 l-1 -993 -325 0 -325 0 0 1574 c0 1041 3
1575 10 1578 7 2 605 1 681 -2z m-1226 -2035 l0 -1100 -335 0 -335 0 -3 1090
c-1 600 0 1096 3 1103 3 10 76 12 337 10 l333 -3 0 -1100z"/>
</g>
</svg>
